<?xml version="1.0" standalone="no"?>
<!DOCTYPE svg PUBLIC "-//W3C//DTD SVG 20010904//EN"
 "http://www.w3.org/TR/2001/REC-SVG-20010904/DTD/svg10.dtd">
<svg version="1.0" xmlns="http://www.w3.org/2000/svg"
 width="16.000000pt" height="16.000000pt" viewBox="0 0 16.000000 16.000000"
 preserveAspectRatio="xMidYMid meet">
<metadata>
Created by potrace 1.11, written by Peter Selinger 2001-2013
</metadata>
<g transform="translate(0.000000,16.000000) scale(0.006154,-0.006154)"
fill="#000000" stroke="none">
<path d="M1655 2584 c-201 -31 -372 -131 -504 -298 -161 -202 -214 -469 -145
-718 l17 -60 -509 -509 -509 -509 0 -226 c-1 -161 3 -231 11 -242 11 -15 40
-17 227 -19 199 -1 217 0 232 17 15 16 17 41 16 162 l-1 144 138 -1 c75 0 145
1 154 3 27 6 32 36 33 182 l0 135 166 5 165 5 183 183 c100 100 184 182 186
182 2 0 15 -4 30 -10 14 -5 38 -12 53 -15 15 -2 47 -8 72 -13 51 -10 178 -8
258 2 142 19 301 100 417 213 179 172 257 365 250 612 -6 220 -79 392 -234
548 -123 124 -256 194 -441 230 -54 10 -189 9 -265 -3z m395 -416 c108 -46
164 -176 130 -299 -13 -47 -72 -115 -123 -141 -56 -28 -157 -29 -213 0 -47 24
-100 81 -120 128 -20 47 -17 141 5 190 24 53 83 109 135 128 49 18 136 15 186
-6z"/>
</g>
</svg>
